<?xml version="1.0" encoding="UTF-8"?>
<!DOCTYPE svg PUBLIC "-//W3C//DTD SVG 1.1//EN" "http://www.w3.org/Graphics/SVG/1.1/DTD/svg11.dtd">
<svg version="1.1" xmlns="http://www.w3.org/2000/svg" xmlns:xlink="http://www.w3.org/1999/xlink" x="0px" y="0px"
	 preserveAspectRatio="xMidYMid meet" width="150px" height="45px" viewBox="0 0 150 45" enable-background="new 0 0 150 45" xml:space="preserve">
   
    <g id="group3">
        <path id="bezier" stroke="none" fill="rgb(246, 249, 248)" d="M 0.17,44.58 C -0.06,34.67 6.41,30.71 17.23,31.18 21.18,18.58 33.15,16.98 47.33,19.21 53.03,4 81.36,-5.57 100.01,4.85 106.54,8.5 109.9,13.9 115.06,18.73 133.25,11.7 153.19,25.88 149.17,44.58 99.51,44.58 49.83,44.58 0.17,44.58 Z M 0.17,44.58" />
        <path id="bezier2" stroke="none" fill="rgb(216, 229, 225)" d="M 80.52,29.98 C 84.54,29.98 87.79,26.87 87.79,23.04 L 73.24,23.04 C 73.24,26.87 76.5,29.98 80.52,29.98 Z M 80.52,29.98" />
        <g id="group">
            <g id="group2">
                <g id="sVGID_2_" clip-path="url(#bezier3)">
                    <clipPath id="bezier3">
                        <path d="M 49.34,16.35 L 71.95,16.35 71.95,24.73 49.34,24.73 49.34,16.35 Z M 49.34,16.35" />
                    </clipPath>
                    <path id="bezier4" stroke="rgb(216, 229, 225)" stroke-width="2" stroke-miterlimit="10" fill="none" d="M 65.92,20.62 C 68.57,23.21 68.57,27.41 65.92,30 63.27,32.59 58.97,32.59 56.32,30 53.68,27.41 53.68,23.21 56.32,20.62 58.97,18.03 63.27,18.03 65.92,20.62 Z M 65.92,20.62" />
                </g>
            </g>
            <g id="group4">
                <g id="sVGID_4_" clip-path="url(#bezier5)">
                    <clipPath id="bezier5">
                        <path d="M 89.32,16.38 L 110.95,16.38 110.95,24.76 89.32,24.76 89.32,16.38 Z M 89.32,16.38" />
                    </clipPath>
                    <path id="bezier6" stroke="rgb(216, 229, 225)" stroke-width="2" stroke-miterlimit="10" fill="none" d="M 105.18,20.65 C 107.71,23.24 107.71,27.45 105.18,30.04 102.64,32.63 98.54,32.63 96,30.04 93.47,27.45 93.47,23.24 96,20.65 98.54,18.06 102.64,18.06 105.18,20.65 Z M 105.18,20.65" />
                </g>
            </g>
        </g>
    </g>
</svg>
