<?xml version="1.0" encoding="UTF-8"?>
<!DOCTYPE svg PUBLIC "-//W3C//DTD SVG 1.1//EN" "http://www.w3.org/Graphics/SVG/1.1/DTD/svg11.dtd">
<svg version="1.1" xmlns="http://www.w3.org/2000/svg" xmlns:xlink="http://www.w3.org/1999/xlink" x="0px" y="0px"
	 preserveAspectRatio="xMidYMid meet" width="300px" height="200px" viewBox="0 0 300 200" enable-background="new 0 0 300 200" xml:space="preserve">

    
    <defs>
        <linearGradient id="sVGID_1_bezierbezierbezier-bezier" x1="28.3" y1="67.33" x2="28.3" y2="71.54" gradientUnits="userSpaceOnUse" >
            <stop offset="0" stop-color="rgb(17, 17, 17)" stop-opacity="1" />
            <stop offset="1" stop-color="rgb(0, 0, 0)" stop-opacity="1" />
        </linearGradient>
    </defs>
    <g id="group2">
        <g id="layer_1_1_">
            <path id="bezier" stroke="none" fill="url(#sVGID_1_bezierbezierbezier-bezier)" d="M 14.38,67.33 L 42.22,67.33 42.22,71.54 14.38,71.54 14.38,67.33 Z M 14.38,67.33" />
            <path id="bezier2" stroke="none" fill="rgb(243, 197, 173)" d="M 18.31,50.87 C 19.44,52.41 18.34,56 15.84,58.9 13.34,61.8 10.38,62.91 9.25,61.38 8.11,59.85 9.22,56.26 11.72,53.35 14.22,50.45 17.17,49.34 18.31,50.87 Z M 18.31,50.87" />
            <path id="bezier3" stroke="none" fill="rgb(14, 13, 14)" fill-opacity="0.3" d="M 10.5,60.63 C 10.09,60.37 10.07,59.33 10.44,58.24 10.41,58.32 10.37,58.42 10.33,58.52 9.85,59.71 9.83,60.91 10.28,61.2 10.73,61.47 11.49,60.73 11.97,59.54 12.01,59.45 12.04,59.35 12.07,59.25 11.6,60.28 10.92,60.9 10.5,60.63 Z M 10.5,60.63" />
            <path id="bezier4" stroke="none" fill="rgb(243, 197, 173)" d="M 38.55,63.27 C 35.15,60.09 32.78,53.77 33.22,49.15 33.67,44.54 36.79,43.38 40.18,46.57 43.57,49.75 45.95,56.08 45.5,60.69 45.05,65.3 41.93,66.46 38.55,63.27 Z M 38.55,63.27" />
            <path id="bezier5" stroke="none" fill="rgb(14, 13, 14)" fill-opacity="0.3" d="M 41.61,63.01 C 40.8,63.01 40.13,61.74 40.04,60.1 40.03,60.24 40.02,60.39 40.02,60.53 40.02,62.38 40.73,63.88 41.61,63.88 42.49,63.88 43.21,62.38 43.21,60.53 43.21,60.39 43.2,60.24 43.19,60.1 43.09,61.74 42.42,63.01 41.61,63.01 Z M 41.61,63.01" />
            <path id="bezier6" stroke="none" fill="rgb(62, 162, 135)" d="M 44.76,51.23 L 39.95,44.43 36.07,46.21 35.72,45.09 20.24,45.09 19.97,46.06 16.42,44.43 11.6,51.23 17.76,54.05 13.97,67.74 42.68,67.74 38.5,54.11 44.76,51.23 Z M 44.76,51.23" />
            <path id="bezier7" stroke="none" fill="rgb(255, 255, 255)" d="M 31.44,44.68 C 33.21,46.44 33.21,49.28 31.44,51.04 29.67,52.8 26.81,52.8 25.04,51.04 23.27,49.28 23.27,46.44 25.04,44.68 26.81,42.93 29.67,42.93 31.44,44.68 Z M 31.44,44.68" />
            <path id="bezier8" stroke="none" fill="rgb(213, 166, 145)" d="M 30.91,44.74 C 32.39,46.32 32.39,48.87 30.91,50.44 29.44,52.02 27.04,52.02 25.57,50.44 24.1,48.87 24.1,46.32 25.57,44.74 27.04,43.17 29.44,43.17 30.91,44.74 Z M 30.91,44.74" />
            <path id="bezier9" stroke="none" fill="rgb(243, 197, 173)" d="M 7.29,25.63 C 8.69,27.03 8.69,29.29 7.29,30.68 5.89,32.08 3.61,32.08 2.21,30.68 0.81,29.29 0.81,27.03 2.21,25.63 3.61,24.23 5.89,24.23 7.29,25.63 Z M 7.29,25.63" />
            <path id="bezier10" stroke="none" fill="rgb(243, 197, 173)" d="M 53.75,25.63 C 55.15,27.03 55.15,29.29 53.75,30.68 52.35,32.08 50.07,32.08 48.67,30.68 47.27,29.29 47.27,27.03 48.67,25.63 50.07,24.23 52.35,24.23 53.75,25.63 Z M 53.75,25.63" />
            <path id="bezier11" stroke="none" fill="rgb(243, 197, 173)" d="M 44.85,16.99 C 54.07,24.16 54.07,35.76 44.85,42.93 35.63,50.08 20.67,50.08 11.45,42.93 2.23,35.76 2.23,24.16 11.45,16.99 20.67,9.84 35.63,9.84 44.85,16.99 Z M 44.85,16.99" />
            <path id="bezier12" stroke="none" fill="rgb(157, 128, 114)" d="M 17.2,30.41 C 17.2,32.66 15.37,27.51 13.1,27.51 10.84,27.51 9,32.66 9,30.41 9,28.15 10.84,26.33 13.1,26.33 15.37,26.33 17.2,28.15 17.2,30.41 Z M 17.2,30.41" />
            <path id="bezier13" stroke="none" fill="rgb(157, 128, 114)" d="M 48.52,30.41 C 48.52,32.66 46.69,27.51 44.42,27.51 42.16,27.51 40.33,32.66 40.33,30.41 40.33,28.15 42.16,26.33 44.42,26.33 46.69,26.33 48.52,28.15 48.52,30.41 Z M 48.52,30.41" />
            <path id="bezier14" stroke="none" fill="rgb(14, 13, 14)" fill-opacity="0.3" d="M 44.25,23.56 C 47.19,23.56 49.6,25.52 49.8,28.01 49.81,27.9 49.82,27.79 49.82,27.67 49.82,25.02 47.32,22.87 44.25,22.87 41.18,22.87 38.68,25.02 38.68,27.67 38.68,27.79 38.69,27.9 38.7,28.01 38.9,25.52 41.31,23.56 44.25,23.56 Z M 44.25,23.56" />
            <path id="bezier15" stroke="none" fill="rgb(14, 13, 14)" fill-opacity="0.3" d="M 13.1,23.56 C 16.04,23.56 18.45,25.52 18.65,28.01 18.66,27.9 18.67,27.79 18.67,27.67 18.67,25.02 16.18,22.87 13.1,22.87 10.03,22.87 7.53,25.02 7.53,27.67 7.53,27.79 7.54,27.9 7.55,28.01 7.76,25.52 10.16,23.56 13.1,23.56 Z M 13.1,23.56" />
            <g id="group7" opacity="0.1">
                <path id="bezier16" stroke="none" fill="rgb(0, 0, 0)" fill-opacity="0.1" d="M 50.87,16.23 C 50.89,15.98 50.91,15.72 50.91,15.45 50.91,7.56 40.64,1.16 27.97,1.16 15.54,1.16 5.42,7.32 5.05,15.02 L 50.87,15.02 50.87,16.23 50.87,16.23 Z M 50.87,16.23" />
                <path id="bezier17" stroke="none" fill="rgb(0, 0, 0)" fill-opacity="0.1" d="M 50.87,15.01 L 5.05,15.01 5.02,15.01 5.02,29.93 37.46,19.26 50.87,29.93 50.87,16.23 50.87,15.01 Z M 50.87,15.01" />
            </g>
            <path id="bezier18" stroke="none" fill="rgb(236, 160, 66)" d="M 51.73,16.04 C 51.75,15.79 51.76,15.53 51.76,15.28 51.76,12 49.91,8.98 46.78,6.59 46.4,6.3 48.06,2.91 47.64,2.64 47.3,2.41 44.88,5.29 44.5,5.08 44.32,4.98 44.13,4.87 43.95,4.77 43.26,4.4 44.05,0.36 43.29,0.05 42.64,-0.23 40.44,3.2 39.74,2.96 36.31,1.8 32.36,1.14 28.15,1.14 15.36,1.14 4.94,7.23 4.55,14.84 L 51.73,14.84 51.73,16.04 51.73,16.04 Z M 51.73,16.04" />
            <path id="bezier19" stroke="none" fill="rgb(236, 160, 66)" d="M 51.73,13.93 L 4.55,13.93 4.52,13.93 4.52,29.41 C 4.52,29.41 19.93,24.31 25.07,22.61 28.28,21.54 37.93,18.34 37.93,18.34 L 51.73,29.41 51.73,15.2 51.73,13.93 Z M 51.73,13.93" />
            <path id="bezier20" stroke="none" fill="rgb(19, 17, 16)" d="M 28.11,68.22 L 28.29,68.22 28.29,71.67 28.11,71.67 28.11,68.22 Z M 28.11,68.22" />
            <path id="bezier21" stroke="none" fill="rgb(14, 13, 14)" fill-opacity="0.3" d="M 28.33,32.47 C 28.96,32.47 29.49,32.91 29.6,33.5 29.62,33.42 29.63,33.33 29.63,33.24 29.63,32.52 29.05,31.95 28.33,31.95 27.6,31.95 27.02,32.52 27.02,33.24 27.02,33.33 27.03,33.42 27.05,33.5 27.17,32.91 27.7,32.47 28.33,32.47 Z M 28.33,32.47" />
            <path id="bezier22" stroke="none" fill="rgb(230, 119, 23)" fill-opacity="0.5" d="M 44,36.78 C 44.34,37.12 44.34,37.66 44,38.01 43.66,38.34 43.11,38.34 42.76,38.01 42.42,37.66 42.42,37.12 42.76,36.78 43.11,36.44 43.66,36.44 44,36.78 Z M 44,36.78" />
            <path id="bezier23" stroke="none" fill="rgb(230, 119, 23)" fill-opacity="0.5" d="M 45.36,38.88 C 45.51,39.02 45.51,39.23 45.36,39.36 45.23,39.51 45.01,39.51 44.88,39.36 44.73,39.23 44.73,39.02 44.88,38.88 45.01,38.74 45.23,38.74 45.36,38.88 Z M 45.36,38.88" />
            <path id="bezier24" stroke="none" fill="rgb(230, 119, 23)" fill-opacity="0.5" d="M 41.82,38.74 C 42.05,38.95 42.05,39.3 41.82,39.51 41.61,39.73 41.26,39.73 41.05,39.51 40.83,39.3 40.83,38.95 41.05,38.74 41.26,38.52 41.61,38.52 41.82,38.74 Z M 41.82,38.74" />
            <path id="bezier25" stroke="none" fill="rgb(230, 119, 23)" fill-opacity="0.5" d="M 42.72,38.91 C 42.79,38.98 42.79,39.09 42.72,39.16 42.66,39.23 42.54,39.23 42.47,39.16 42.4,39.09 42.4,38.98 42.47,38.91 42.54,38.84 42.66,38.84 42.72,38.91 Z M 42.72,38.91" />
            <path id="bezier26" stroke="none" fill="rgb(230, 119, 23)" fill-opacity="0.5" d="M 14.94,36.78 C 15.28,37.12 15.28,37.66 14.94,38.01 14.59,38.34 14.05,38.34 13.7,38.01 13.36,37.66 13.36,37.12 13.7,36.78 14.05,36.44 14.59,36.44 14.94,36.78 Z M 14.94,36.78" />
            <path id="bezier27" stroke="none" fill="rgb(230, 119, 23)" fill-opacity="0.5" d="M 16.3,38.88 C 16.45,39.02 16.45,39.23 16.3,39.36 16.17,39.51 15.95,39.51 15.82,39.36 15.67,39.23 15.67,39.02 15.82,38.88 15.95,38.74 16.17,38.74 16.3,38.88 Z M 16.3,38.88" />
            <path id="bezier28" stroke="none" fill="rgb(230, 119, 23)" fill-opacity="0.5" d="M 12.76,38.74 C 12.99,38.95 12.99,39.3 12.76,39.51 12.55,39.73 12.2,39.73 11.99,39.51 11.77,39.3 11.77,38.95 11.99,38.74 12.2,38.52 12.55,38.52 12.76,38.74 Z M 12.76,38.74" />
            <path id="bezier29" stroke="none" fill="rgb(230, 119, 23)" fill-opacity="0.5" d="M 13.66,38.91 C 13.73,38.98 13.73,39.09 13.66,39.16 13.6,39.23 13.48,39.23 13.41,39.16 13.34,39.09 13.34,38.98 13.41,38.91 13.48,38.84 13.6,38.84 13.66,38.91 Z M 13.66,38.91" />
            <path id="bezier30" stroke="none" fill="rgb(10, 10, 10)" fill-opacity="0.05" d="M 11.83,35.17 C 9.76,35.17 7.89,36.05 6.59,37.43 8.83,41.34 12.79,44.52 17.72,46.41 18.54,45.25 19.02,43.84 19.02,42.32 19.02,38.37 15.8,35.17 11.83,35.17 Z M 11.83,35.17" />
            <path id="bezier31" stroke="none" fill="rgb(10, 10, 10)" fill-opacity="0.05" d="M 44.4,35.17 C 46.47,35.17 48.33,36.05 49.64,37.43 47.39,41.34 43.44,44.52 38.51,46.41 37.69,45.25 37.21,43.84 37.21,42.32 37.21,38.37 40.43,35.17 44.4,35.17 Z M 44.4,35.17" />
            <path id="bezier32" stroke="none" fill="rgb(19, 17, 16)" d="M 12.4,71.18 C 12.87,71.53 12.87,72.07 12.4,72.41 11.92,72.75 11.15,72.75 10.68,72.41 10.2,72.07 10.2,71.53 10.68,71.18 11.15,70.85 11.92,70.85 12.4,71.18 Z M 12.4,71.18" />
            <path id="bezier33" stroke="none" fill="rgb(19, 17, 16)" d="M 14.31,71.18 C 14.79,71.53 14.79,72.07 14.31,72.41 13.84,72.75 13.06,72.75 12.59,72.41 12.12,72.07 12.12,71.53 12.59,71.18 13.06,70.85 13.84,70.85 14.31,71.18 Z M 14.31,71.18" />
            <path id="bezier34" stroke="none" fill="rgb(19, 17, 16)" d="M 16.23,71.18 C 16.7,71.53 16.7,72.07 16.23,72.41 15.75,72.75 14.98,72.75 14.5,72.41 14.03,72.07 14.03,71.53 14.5,71.18 14.98,70.85 15.75,70.85 16.23,71.18 Z M 16.23,71.18" />
            <path id="bezier35" stroke="none" fill="rgb(19, 17, 16)" d="M 18.14,71.18 C 18.61,71.53 18.61,72.07 18.14,72.41 17.67,72.75 16.89,72.75 16.42,72.41 15.95,72.07 15.95,71.53 16.42,71.18 16.89,70.85 17.67,70.85 18.14,71.18 Z M 18.14,71.18" />
            <path id="bezier36" stroke="none" fill="rgb(19, 17, 16)" d="M 20.05,71.18 C 20.53,71.53 20.53,72.07 20.05,72.41 19.58,72.75 18.81,72.75 18.33,72.41 17.86,72.07 17.86,71.53 18.33,71.18 18.81,70.85 19.58,70.85 20.05,71.18 Z M 20.05,71.18" />
            <path id="bezier37" stroke="none" fill="rgb(19, 17, 16)" d="M 21.97,71.18 C 22.44,71.53 22.44,72.07 21.97,72.41 21.49,72.75 20.72,72.75 20.25,72.41 19.77,72.07 19.77,71.53 20.25,71.18 20.72,70.85 21.49,70.85 21.97,71.18 Z M 21.97,71.18" />
            <path id="bezier38" stroke="none" fill="rgb(19, 17, 16)" d="M 24.06,71.18 C 24.53,71.53 24.53,72.07 24.06,72.41 23.58,72.75 22.81,72.75 22.34,72.41 21.86,72.07 21.86,71.53 22.34,71.18 22.81,70.85 23.58,70.85 24.06,71.18 Z M 24.06,71.18" />
            <path id="bezier39" stroke="none" fill="rgb(19, 17, 16)" d="M 25.97,71.18 C 26.44,71.53 26.44,72.07 25.97,72.41 25.5,72.75 24.72,72.75 24.25,72.41 23.78,72.07 23.78,71.53 24.25,71.18 24.72,70.85 25.5,70.85 25.97,71.18 Z M 25.97,71.18" />
            <path id="bezier40" stroke="none" fill="rgb(19, 17, 16)" d="M 27.88,71.18 C 28.36,71.53 28.36,72.07 27.88,72.41 27.41,72.75 26.64,72.75 26.16,72.41 25.69,72.07 25.69,71.53 26.16,71.18 26.64,70.85 27.41,70.85 27.88,71.18 Z M 27.88,71.18" />
            <path id="bezier41" stroke="none" fill="rgb(19, 17, 16)" d="M 30.32,71.18 C 30.79,71.53 30.79,72.07 30.32,72.41 29.85,72.75 29.07,72.75 28.6,72.41 28.13,72.07 28.13,71.53 28.6,71.18 29.07,70.85 29.85,70.85 30.32,71.18 Z M 30.32,71.18" />
            <path id="bezier42" stroke="none" fill="rgb(19, 17, 16)" d="M 32.23,71.18 C 32.71,71.53 32.71,72.07 32.23,72.41 31.76,72.75 30.99,72.75 30.51,72.41 30.04,72.07 30.04,71.53 30.51,71.18 30.99,70.85 31.76,70.85 32.23,71.18 Z M 32.23,71.18" />
            <path id="bezier43" stroke="none" fill="rgb(19, 17, 16)" d="M 34.15,71.18 C 34.62,71.53 34.62,72.07 34.15,72.41 33.67,72.75 32.9,72.75 32.43,72.41 31.94,72.07 31.94,71.53 32.43,71.18 32.9,70.85 33.67,70.85 34.15,71.18 Z M 34.15,71.18" />
            <path id="bezier44" stroke="none" fill="rgb(19, 17, 16)" d="M 36.06,71.18 C 36.54,71.53 36.54,72.07 36.06,72.41 35.59,72.75 34.82,72.75 34.34,72.41 33.87,72.07 33.87,71.53 34.34,71.18 34.82,70.85 35.59,70.85 36.06,71.18 Z M 36.06,71.18" />
            <path id="bezier45" stroke="none" fill="rgb(19, 17, 16)" d="M 37.98,71.18 C 38.45,71.53 38.45,72.07 37.98,72.41 37.5,72.75 36.73,72.75 36.26,72.41 35.78,72.07 35.78,71.53 36.26,71.18 36.73,70.85 37.5,70.85 37.98,71.18 Z M 37.98,71.18" />
            <path id="bezier46" stroke="none" fill="rgb(19, 17, 16)" d="M 39.89,71.18 C 40.36,71.53 40.36,72.07 39.89,72.41 39.42,72.75 38.64,72.75 38.17,72.41 37.7,72.07 37.7,71.53 38.17,71.18 38.64,70.85 39.42,70.85 39.89,71.18 Z M 39.89,71.18" />
            <path id="bezier47" stroke="none" fill="rgb(19, 17, 16)" d="M 41.98,71.18 C 42.45,71.53 42.45,72.07 41.98,72.41 41.5,72.75 40.73,72.75 40.26,72.41 39.78,72.07 39.78,71.53 40.26,71.18 40.73,70.85 41.5,70.85 41.98,71.18 Z M 41.98,71.18" />
            <path id="bezier48" stroke="none" fill="rgb(19, 17, 16)" d="M 43.89,71.18 C 44.37,71.53 44.37,72.07 43.89,72.41 43.42,72.75 42.65,72.75 42.17,72.41 41.69,72.07 41.69,71.53 42.17,71.18 42.65,70.85 43.42,70.85 43.89,71.18 Z M 43.89,71.18" />
            <path id="bezier49" stroke="none" fill="rgb(19, 17, 16)" d="M 45.81,71.18 C 46.28,71.53 46.28,72.07 45.81,72.41 45.33,72.75 44.56,72.75 44.09,72.41 43.61,72.07 43.61,71.53 44.09,71.18 44.56,70.85 45.33,70.85 45.81,71.18 Z M 45.81,71.18" />
            <path id="bezier50" stroke="none" fill="rgb(230, 186, 164)" d="M 35.98,32.42 C 40.2,32.89 40.2,33.66 35.98,34.13 31.77,34.6 24.95,34.6 20.73,34.13 16.52,33.66 16.52,32.89 20.73,32.42 24.95,31.95 31.77,31.95 35.98,32.42 Z M 35.98,32.42" />
            <path id="bezier51" stroke="none" fill="rgb(255, 255, 255)" d="M 19.28,68.25 C 14.33,68.25 10.32,69.88 10.32,71.89 L 28.24,71.89 C 28.24,69.88 24.23,68.25 19.28,68.25 Z M 19.28,68.25" />
            <path id="bezier52" stroke="none" fill="rgb(255, 255, 255)" d="M 37.2,68.25 C 32.25,68.25 28.24,69.88 28.24,71.89 L 46.16,71.89 C 46.16,69.88 42.15,68.25 37.2,68.25 Z M 37.2,68.25" />
            <path id="bezier53" stroke="none" fill="rgb(234, 169, 140)" d="M 8.64,56.16 C 8.54,55.51 8.95,55.22 9.54,55.53 10.14,55.83 10.7,56.6 10.79,57.27 10.89,57.92 10.48,58.21 9.88,57.9 9.29,57.6 8.73,56.82 8.64,56.16 Z M 8.64,56.16" />
        </g>
        <path id="bezier54" stroke="rgb(157, 128, 114)" stroke-miterlimit="10" fill="none" d="M 35.9,39.43 C 35.9,41.07 32.59,42.41 28.5,42.41 24.41,42.41 21.11,41.07 21.11,39.43 21.11,37.77 24.41,36.43 28.5,36.43 32.59,36.43 35.9,37.77 35.9,39.43 Z M 35.9,39.43" />
        <path id="bezier55" stroke="none" fill="rgb(243, 197, 173)" d="M 20.41,35.57 L 36.42,35.57 36.42,39.26 20.41,39.26 20.41,35.57 Z M 20.41,35.57" />
    </g>
</svg>
