<?xml version="1.0" encoding="utf-8"?>
<!-- Generator: Adobe Illustrator 15.0.0, SVG Export Plug-In . SVG Version: 6.00 Build 0)  -->
<!DOCTYPE svg PUBLIC "-//W3C//DTD SVG 1.1//EN" "http://www.w3.org/Graphics/SVG/1.1/DTD/svg11.dtd">
<svg version="1.1" id="图层_1" xmlns="http://www.w3.org/2000/svg" xmlns:xlink="http://www.w3.org/1999/xlink" x="0px" y="0px"
	 width="250px" height="100px" viewBox="0 0 250 100" enable-background="new 0 0 250 100" xml:space="preserve">
<g>
	<path fill="#F9F0E8" d="M28.391,60.89c0.1,0,1.5,0,4.3,0c2.1,0,3.2,0.3,3.3,0.898c0.1,0.5-0.4,1-1.5,1.4
		c-1.1,0.398-2.4,0.6-3.9,0.6c-0.7,0-1.5-0.1-2.2-0.199c-5.2-0.899-9.2-2.601-12-5.301c-2.8-2.699-4.2-6-4.2-10c0-3,0.8-6.3,2.4-9.8
		c3.8-8.3,9.5-15.4,16.9-21.1c7.9-6.1,15.8-9.1,23.7-8.9c12.2,0.4,18.4,9.4,18.5,27c0.102,7.1-0.5,14.5-1.6,22.101
		c-1.2,7.199-2.3,14.399-3.5,21.601c-0.1,0.5-0.1,0.899-0.1,1.2c0,0.6,0.1,1,0.3,1s0.399-0.2,0.6-0.602
		c10.101-18.099,18.601-31.799,25.4-41.199c4.1-5.7,8.2-10.4,12.3-14.2c4.7-4.4,8.3-6.5,11-6.5c1,0.1,1.8,0.4,2.5,1.1
		c0.6,0.7,1,1.4,1,2.1c0,0.9-0.5,1.3-1.4,1.3c-0.398,0-0.898-0.2-1.5-0.7c-0.6-0.5-1-0.7-1.3-0.7c-3.399,0.2-9.1,5.4-17.2,15.6
		c-5.8,7.3-12.1,17-19.1,29.1c-6.2,10.8-10.2,18.6-12.1,23.6c-0.301,0.9-1.2,1.4-2.7,1.4c-2.2,0-3.3-0.7-3-2
		c1.4-7.9,2.7-15.9,4.1-23.8c2.4-14.7,3.5-24.602,3.4-29.7c-0.2-6.9-1.3-12.6-3.5-16.9c-2.7-5.6-6.9-8.4-12.5-8.3
		c-6.3,0.1-13.1,2.8-20.2,8.2c-7.4,5.6-12.8,12.4-16.3,20.4c-1.2,2.7-1.8,5.3-1.8,7.8c0,3.4,1,6.3,3,8.7
		C21.491,58.489,24.491,60.189,28.391,60.89z"/>
	<path fill="#F9F0E8" d="M93.292,88.689c-0.2,0.2-0.5,0.3-0.9,0.3c-1.1,0-1.6-0.3-1.6-1c0-0.3,0.3-1.6,1-4c0.5-1.8,0.7-4.3,0.7-7.7
		c0-3.6-0.5-6.3-1.602-8.1c-0.3-0.5-0.898-1-1.699-1.5s-1.199-1-1.199-1.4c0-0.899,0.398-1.399,1.3-1.399c2.2,0,3.899,1.699,5,5
		c0.7,2.301,1.1,4.899,1.1,7.801c2.601-5.102,4.9-8.602,7-10.5c0.9-0.801,1.8-1.2,2.8-1.2c2.5,0,4.2,1.899,5.2,5.601
		c0.4,2.101,1.101,5.301,2,9.601c1,4.3,2.5,6.399,4.5,6.399c1.2,0,2.7-0.699,4.601-2.199c0.101-0.102,1.301-1.2,3.7-3.4
		c1.9-1.8,3.102-2.7,3.4-2.7c0.799,0,1.199,0.4,1.199,1.2c0,0.6-0.9,1.9-2.699,3.7c-2.201,2.2-4.5,4-6.8,5.2c-1.2,0.6-2.3,1-3.4,1
		c-3.6,0-6.1-3.102-7.5-9.2c-0.3-1.8-0.899-4.5-1.6-8.2c-0.601-2.8-1.5-4.2-2.601-4.2c-0.899,0-2.101,1.101-3.601,3.4
		c-1.7,2.6-3.5,6-5.399,10.2l-1,2.199c-0.301,0.601-0.5,1.301-0.801,2C94.091,87.189,93.691,88.089,93.292,88.689z"/>
	<path fill="#F9F0E8" d="M128.691,88.689c-0.199,0.2-0.5,0.3-0.898,0.3c-1.102,0-1.602-0.3-1.602-1c0-0.3,0.301-1.6,1-4
		c0.5-1.8,0.699-4.3,0.699-7.7c0-3.6-0.5-6.3-1.6-8.1c-0.299-0.5-0.9-1-1.699-1.5c-0.8-0.5-1.201-1-1.201-1.4
		c0-0.899,0.4-1.399,1.3-1.399c2.199,0,3.9,1.699,5,5c0.699,2.301,1.102,4.899,1.102,7.801c2.6-5.102,4.898-8.602,7-10.5
		c0.898-0.801,1.799-1.2,2.799-1.2c2.5,0,4.201,1.899,5.201,5.601c0.398,2.101,1.1,5.301,2,9.601c1,4.3,2.5,6.399,4.5,6.399
		c1.199,0,2.699-0.699,4.6-2.199c0.102-0.102,1.301-1.2,3.699-3.4c1.9-1.8,3.102-2.7,3.4-2.7c0.801,0,1.199,0.4,1.199,1.2
		c0,0.6-0.898,1.9-2.699,3.7c-2.199,2.2-4.5,4-6.801,5.2c-1.199,0.6-2.301,1-3.398,1c-3.602,0-6.102-3.102-7.5-9.2
		c-0.301-1.8-0.9-4.5-1.602-8.2c-0.6-2.8-1.5-4.2-2.6-4.2c-0.9,0-2.1,1.101-3.6,3.4c-1.701,2.6-3.5,6-5.4,10.2l-1,2.199
		c-0.301,0.601-0.5,1.301-0.801,2C129.492,87.189,128.992,88.089,128.691,88.689z"/>
	<path fill="#F9F0E8" d="M171.992,87.39c3.398,0,7.299-2.301,11.799-6.801l1.5-1.5c0.5-0.5,0.898-0.699,1.201-0.699
		c1,0,1.398,0.5,1.398,1.398c0,0.301-0.1,0.602-0.398,1c-2,2.5-4.303,4.602-6.9,6.301c-3.1,2.101-6,3.199-8.6,3.199
		c-5.301,0-8.5-4-9.4-11.898c-0.301-2.2-0.4-4.4-0.4-6.602c0-9.398,1-18.398,3.102-27.1c0.898-3.6,2-6.8,3.398-9.5
		c1.699-3.4,3.699-5,6.102-5c2.799,0,4.199,2.4,4.199,7.1c0,11.1-2.199,21.5-6.602,31.2c-1.898,4.3-4.1,8-6.6,11.3
		C166.492,84.789,168.592,87.39,171.992,87.39z M165.191,75.589c4-6.1,7.102-13.6,9.301-22.6c1.1-4.6,1.699-9.8,1.699-15.4
		c0-3.2-0.5-4.8-1.6-4.8s-2.201,1.3-3.5,3.9c-2.1,4.2-3.701,10.4-4.701,18.6c-1,7.5-1.398,13-1.299,16.7L165.191,75.589z"/>
	<path fill="#F9F0E8" d="M208.992,83.39c-4.701,4.399-9.301,6.6-13.602,6.6c-4.898,0-8.199-3.1-9.799-9.4
		c-0.5-1.898-0.801-3.898-0.801-6.199c0-7,1.701-12.199,5.201-15.801c1.1-1.199,2.5-1.8,4-1.8c2.5,0,3.799,1.9,3.799,5.8
		c0,2.801-1.102,6.102-3.299,10.102c-1.9,3.5-3.9,6.1-6,7.898c0,1.2,0.697,2.602,2.197,4.2c1.5,1.601,3.102,2.4,4.9,2.4
		c2.1,0,4.6-0.9,7.5-2.7c2.5-1.6,4.6-3.4,6.201-5.4c0.398-0.5,0.898-0.699,1.299-0.699c1,0,1.4,0.399,1.4,1.301
		C211.992,80.189,210.992,81.489,208.992,83.39z M194.891,62.489c0-1.9-0.398-2.9-1.199-2.9c-1.5,0-3,1.7-4.199,5.2
		c-1.301,3.5-1.9,6.7-1.9,9.7c0,0.7,0.1,1.6,0.201,2.7C192.492,71.989,194.891,66.989,194.891,62.489z"/>
	<path fill="#F9F0E8" d="M233.092,83.39c-4.701,4.398-9.301,6.6-13.6,6.6c-4.9,0-8.201-3.1-9.803-9.4
		c-0.5-1.898-0.799-3.898-0.799-6.199c0-7,1.699-12.199,5.199-15.801c1.1-1.199,2.5-1.8,4-1.8c2.5,0,3.801,1.9,3.801,5.8
		c0,2.801-1.1,6.102-3.301,10.102c-1.9,3.5-3.9,6.1-6,7.898c0,1.2,0.701,2.602,2.201,4.2c1.5,1.601,3.1,2.4,4.898,2.4
		c2.102,0,4.602-0.9,7.5-2.7c2.5-1.6,4.602-3.4,6.199-5.4c0.4-0.5,0.9-0.699,1.301-0.699c1,0,1.4,0.399,1.4,1.301
		C236.092,80.189,235.092,81.489,233.092,83.39z M218.992,62.489c0-1.9-0.4-2.9-1.201-2.9c-1.5,0-3,1.7-4.199,5.2
		c-1.301,3.5-1.9,6.7-1.9,9.7c0,0.7,0.102,1.6,0.199,2.7C216.592,71.989,218.992,66.989,218.992,62.489z"/>
</g>
</svg>
