<?xml version="1.0" encoding="utf-8"?>
<!-- Generator: Adobe Illustrator 15.0.0, SVG Export Plug-In . SVG Version: 6.00 Build 0)  -->
<!DOCTYPE svg PUBLIC "-//W3C//DTD SVG 1.1//EN" "http://www.w3.org/Graphics/SVG/1.1/DTD/svg11.dtd">
<svg version="1.1" id="图层_1" xmlns="http://www.w3.org/2000/svg" xmlns:xlink="http://www.w3.org/1999/xlink" x="0px" y="0px"
	 width="400px" height="100px" viewBox="0 0 400 100" enable-background="new 0 0 400 100" xml:space="preserve">
<g>
	<path fill="#45B29A" d="M55.6,59.9c1.4-0.2,2.1-0.301,2-0.301c0.7,0,1.2,0.301,1.5,1c0.1,0.2,0.2,0.4,0.2,0.601
		c0,1-0.9,1.6-2.6,1.8c-3.2,0.3-6.2,0.4-9,0.4c-14.4,0-24.2-3.601-29.4-10.7c-1.3-1.8-1.9-3.9-1.9-6.3c0-4.6,1.8-9.2,5.5-13.8
		c5.3-6.6,11.5-11.8,18.8-15.8c8.2-4.5,16.3-6.5,24.3-6.1C74.7,11.3,79.6,18,79.6,31c0,9.3-2.3,19.2-6.8,29.6
		C69.1,69.1,64.4,75.9,58.6,80.9c-6.4,5.699-13.4,8.5-21,8.5c-5.9,0-11.1-1.4-15.5-4.2c-5.1-3.101-8-7.5-8.8-13
		c-0.1-0.8,0-1.601,0.3-2.3c0.3-0.7,0.8-1.2,1.4-1.301c0.8-0.1,1.4,0.4,1.8,1.4c0.2,0.4,0.4,1.4,0.7,3c0.6,3,2.2,5.7,5,8.1
		c2.7,2.4,5.9,4,9.6,4.9c1.7,0.4,3.4,0.6,5.2,0.6c7,0,13.7-3,20.1-9c5.7-5.3,10.1-11.899,13.2-19.8c3.8-9.5,5.8-18.4,5.8-26.6
		c0-12.1-4.8-18-14.3-17.7c-7.5,0.3-15.1,2.9-22.6,7.8c-6.3,4.1-11.1,8.6-14.6,13.6c-2.8,4.2-4.2,7.9-4.2,11.2
		c0,3.6,1.6,6.5,4.9,8.9c5.3,3.8,12.4,5.8,21.3,5.8C49.6,60.5,52.6,60.3,55.6,59.9z"/>
	<path fill="#45B29A" d="M91,74.4c2.5-5.4,5.3-9.5,8.2-12.2c1.3-1.101,2.6-1.7,3.8-1.7c2.8,0,4.4,2.1,4.8,6.2c0.1,1.1,0.2,2.1,0.2,3
		c0,2.1-0.1,4.3-0.2,6.5c1.5-3.101,2.6-5.101,3.1-6c1.3-2.2,2.7-4.101,4.2-5.4c1.1-1,2.1-1.399,3.1-1.399c2.5,0,4.2,1.899,5.2,5.6
		c0.4,2.1,1.1,5.3,2,9.6c1,4.301,2.5,6.4,4.5,6.4c1.2,0,2.7-0.7,4.6-2.2c1.6-1.3,3.1-2.6,4.4-4.1l1.6-1.8c0.3-0.301,0.7-0.5,1.1-0.5
		c0.9,0,1.3,0.399,1.3,1.199c0,0.5-0.8,1.7-2.3,3.4c-2.2,2.3-4.5,4.2-6.8,5.7c-1.3,0.7-2.6,1.1-3.8,1.1c-3.6,0-6.1-3.1-7.5-9.2
		c-0.3-1.8-0.9-4.5-1.6-8.199c-0.6-2.801-1.5-4.2-2.6-4.2c-0.9,0-2.1,1.1-3.6,3.399c-1.7,2.601-3.5,6-5.4,10.2l-1,2.2
		c-0.4,1.2-1.1,2.9-2.1,4.9c-0.2,0.199-0.5,0.3-0.9,0.3c-0.9,0-1.3-0.5-1.3-1.601c0,0.5,0.2-1.3,0.6-5.399
		c0.3-3.5,0.5-6.601,0.5-9.101c0-3-0.3-5.3-0.9-6.8c-0.3-0.6-0.7-1-1.2-1c-1.6,0-3.8,2.2-6.6,6.7c-2.8,4.5-5.1,9.7-7.1,15.6
		c-0.2,1-0.6,1.4-1.3,1.4c-1,0-1.5-0.5-1.5-1.4v-0.3c0.3-1.2,0.7-3,1.3-5.399c0.6-3.601,0.9-7.2,0.9-10.801
		c0-1.399-0.3-2.399-0.8-2.899L87.7,66.1c-0.9-0.199-1.3-0.6-1.3-1.3c0-0.899,0.4-1.399,1.3-1.399c2,0,3.2,1.399,3.6,4.1
		c0.1,0.8,0.2,1.6,0.2,2.4c0,0.3,0,0.6,0,1.1l-0.1,1.5C91.3,73.5,91.1,74.2,91,74.4z"/>
	<path fill="#45B29A" d="M160.3,58.9c0.1,0,1.5,0,4.3,0c2.1,0,3.2,0.3,3.3,0.899c0.1,0.5-0.4,1-1.5,1.4c-1.1,0.399-2.4,0.6-3.9,0.6
		c-0.7,0-1.5-0.1-2.2-0.2c-5.2-0.899-9.2-2.6-12-5.3c-2.8-2.7-4.2-6-4.2-10c0-3,0.8-6.3,2.4-9.8c3.8-8.3,9.5-15.4,16.9-21.1
		c7.9-6.1,15.8-9.1,23.7-8.9c12.2,0.4,18.4,9.4,18.5,27c0.101,7.1-0.5,14.5-1.6,22.1c-1.2,7.2-2.3,14.4-3.5,21.601
		c-0.1,0.5-0.1,0.899-0.1,1.2c0,0.6,0.1,1,0.3,1s0.399-0.2,0.6-0.601C211.4,60.7,219.9,47,226.7,37.6c4.1-5.7,8.2-10.4,12.3-14.2
		c4.7-4.4,8.3-6.5,11-6.5c1,0.1,1.8,0.4,2.5,1.1c0.6,0.7,1,1.4,1,2.1c0,0.9-0.5,1.3-1.4,1.3c-0.399,0-0.899-0.2-1.5-0.7
		c-0.6-0.5-1-0.7-1.3-0.7c-3.399,0.2-9.1,5.4-17.2,15.6c-5.8,7.3-12.1,17-19.1,29.1c-6.2,10.8-10.2,18.6-12.1,23.6
		c-0.301,0.9-1.2,1.4-2.7,1.4c-2.2,0-3.3-0.7-3-2c1.4-7.9,2.7-15.9,4.1-23.8c2.4-14.7,3.5-24.601,3.4-29.7
		c-0.2-6.9-1.3-12.6-3.5-16.9c-2.7-5.6-6.9-8.4-12.5-8.3c-6.3,0.1-13.1,2.8-20.2,8.2c-7.4,5.6-12.8,12.4-16.3,20.4
		c-1.2,2.7-1.8,5.3-1.8,7.8c0,3.4,1,6.3,3,8.7C153.4,56.5,156.4,58.2,160.3,58.9z"/>
	<path fill="#45B29A" d="M225.2,86.7c-0.2,0.2-0.5,0.3-0.9,0.3c-1.1,0-1.6-0.3-1.6-1c0-0.3,0.3-1.6,1-4c0.5-1.8,0.7-4.3,0.7-7.7
		c0-3.6-0.5-6.3-1.601-8.1c-0.3-0.5-0.899-1-1.7-1.5c-0.8-0.5-1.199-1-1.199-1.4c0-0.899,0.399-1.399,1.3-1.399
		c2.2,0,3.899,1.699,5,5c0.7,2.3,1.1,4.899,1.1,7.8c2.601-5.101,4.9-8.601,7-10.5c0.9-0.8,1.8-1.2,2.8-1.2c2.5,0,4.2,1.9,5.2,5.6
		c0.4,2.101,1.101,5.301,2,9.601c1,4.3,2.5,6.399,4.5,6.399c1.2,0,2.7-0.699,4.601-2.199c0.1-0.101,1.3-1.2,3.699-3.4
		c1.9-1.8,3.101-2.7,3.4-2.7c0.8,0,1.2,0.4,1.2,1.2c0,0.6-0.9,1.9-2.7,3.7c-2.2,2.2-4.5,4-6.8,5.2c-1.2,0.6-2.3,1-3.4,1
		c-3.6,0-6.1-3.101-7.5-9.2c-0.3-1.8-0.899-4.5-1.6-8.2c-0.601-2.8-1.5-4.2-2.601-4.2c-0.899,0-2.1,1.101-3.6,3.4
		c-1.7,2.6-3.5,6-5.4,10.2l-1,2.199c-0.3,0.601-0.5,1.301-0.8,2C226,85.2,225.6,86.1,225.2,86.7z"/>
	<path fill="#45B29A" d="M260.6,86.7c-0.199,0.2-0.5,0.3-0.899,0.3c-1.101,0-1.601-0.3-1.601-1c0-0.3,0.301-1.6,1-4
		c0.5-1.8,0.7-4.3,0.7-7.7c0-3.6-0.5-6.3-1.6-8.1c-0.3-0.5-0.9-1-1.7-1.5s-1.2-1-1.2-1.4c0-0.899,0.4-1.399,1.3-1.399
		c2.2,0,3.9,1.699,5,5c0.7,2.3,1.101,4.899,1.101,7.8c2.6-5.101,4.899-8.601,7-10.5c0.899-0.8,1.8-1.2,2.8-1.2
		c2.5,0,4.2,1.9,5.2,5.6c0.399,2.101,1.1,5.301,2,9.601c1,4.3,2.5,6.399,4.5,6.399c1.2,0,2.7-0.699,4.6-2.199
		c0.101-0.101,1.3-1.2,3.7-3.4c1.9-1.8,3.1-2.7,3.4-2.7c0.8,0,1.199,0.4,1.199,1.2c0,0.6-0.899,1.9-2.699,3.7
		c-2.2,2.2-4.5,4-6.801,5.2c-1.199,0.6-2.3,1-3.399,1c-3.601,0-6.101-3.101-7.5-9.2c-0.3-1.8-0.9-4.5-1.601-8.2
		c-0.6-2.8-1.5-4.2-2.6-4.2c-0.9,0-2.1,1.101-3.6,3.4c-1.7,2.6-3.5,6-5.4,10.2l-1,2.199c-0.3,0.601-0.5,1.301-0.8,2
		C261.4,85.2,260.9,86.1,260.6,86.7z"/>
	<path fill="#45B29A" d="M303.9,85.4c3.399,0,7.3-2.301,11.8-6.801l1.5-1.5c0.5-0.5,0.899-0.699,1.2-0.699
		c1,0,1.399,0.5,1.399,1.399c0,0.3-0.1,0.601-0.399,1c-2,2.5-4.301,4.601-6.9,6.3c-3.1,2.101-6,3.2-8.6,3.2
		c-5.301,0-8.5-4-9.4-11.899c-0.3-2.2-0.4-4.4-0.4-6.601c0-9.399,1-18.399,3.101-27.1c0.899-3.6,2-6.8,3.399-9.5
		c1.7-3.4,3.7-5,6.101-5c2.8,0,4.2,2.4,4.2,7.1c0,11.1-2.2,21.5-6.601,31.2c-1.899,4.3-4.1,8-6.6,11.3
		C298.4,82.8,300.5,85.4,303.9,85.4z M297.1,73.6c4-6.1,7.101-13.6,9.301-22.6c1.1-4.6,1.699-9.8,1.699-15.4c0-3.2-0.5-4.8-1.6-4.8
		s-2.2,1.3-3.5,3.9c-2.1,4.2-3.7,10.4-4.7,18.6c-1,7.5-1.399,13-1.3,16.7L297.1,73.6z"/>
	<path fill="#45B29A" d="M340.9,81.4C336.2,85.8,331.6,88,327.3,88c-4.899,0-8.2-3.1-9.8-9.4c-0.5-1.899-0.8-3.899-0.8-6.199
		c0-7,1.7-12.2,5.2-15.801c1.1-1.199,2.5-1.8,4-1.8c2.5,0,3.8,1.9,3.8,5.8c0,2.801-1.101,6.101-3.3,10.101c-1.9,3.5-3.9,6.1-6,7.899
		c0,1.2,0.699,2.601,2.199,4.2c1.5,1.601,3.101,2.4,4.9,2.4c2.1,0,4.6-0.9,7.5-2.7c2.5-1.6,4.6-3.4,6.2-5.4
		c0.399-0.5,0.899-0.699,1.3-0.699c1,0,1.4,0.399,1.4,1.3C343.9,78.2,342.9,79.5,340.9,81.4z M326.8,60.5c0-1.9-0.399-2.9-1.2-2.9
		c-1.5,0-3,1.7-4.199,5.2c-1.301,3.5-1.9,6.7-1.9,9.7c0,0.7,0.1,1.6,0.2,2.7C324.4,70,326.8,65,326.8,60.5z"/>
	<path fill="#45B29A" d="M365,81.4c-4.7,4.399-9.3,6.6-13.6,6.6c-4.9,0-8.2-3.1-9.801-9.4c-0.5-1.899-0.8-3.899-0.8-6.199
		c0-7,1.7-12.2,5.2-15.801c1.1-1.199,2.5-1.8,4-1.8c2.5,0,3.8,1.9,3.8,5.8c0,2.801-1.1,6.101-3.3,10.101c-1.9,3.5-3.9,6.1-6,7.899
		c0,1.2,0.7,2.601,2.2,4.2c1.5,1.601,3.1,2.4,4.899,2.4c2.101,0,4.601-0.9,7.5-2.7c2.5-1.6,4.601-3.4,6.2-5.4
		c0.4-0.5,0.9-0.699,1.3-0.699c1,0,1.4,0.399,1.4,1.3C368,78.2,367,79.5,365,81.4z M350.9,60.5c0-1.9-0.4-2.9-1.2-2.9
		c-1.5,0-3,1.7-4.2,5.2c-1.3,3.5-1.9,6.7-1.9,9.7c0,0.7,0.101,1.6,0.2,2.7C348.5,70,350.9,65,350.9,60.5z"/>
</g>
<g>
	<path fill="#45B29A" d="M95.4,11c1.1,0,1.7,0.6,1.7,1.9c0,0.4-0.3,0.9-0.8,1.5c-0.6,0.6-0.9,1.1-1,1.4c-0.5,1.2-0.9,2.7-1.2,4.6
		c-0.2,0.9-0.2,1.5-0.2,1.9v2.8c0.1,1.2-0.6,1.8-1.8,1.8c-1.1,0-1.7-1-1.7-3V22c0-3.1,0.8-6,2.3-8.7C93.5,11.7,94.5,11,95.4,11z"/>
</g>
<g>
	<path fill="#45B29A" d="M379.8,85.5c-0.8-1.7-0.899-3.2-0.3-4.4c1.3-2.5,2.7-3.399,4-2.699c0.4,0.199,0.9,0.699,1.4,1.399
		c1,1.4,0.8,3.3-0.5,5.601c-1,1.6-2.101,2.199-3.301,1.5C380.6,86.7,380.2,86.2,379.8,85.5z"/>
</g>
</svg>
