<?xml version="1.0" encoding="utf-8"?>
<!-- Generator: Adobe Illustrator 15.0.0, SVG Export Plug-In . SVG Version: 6.00 Build 0)  -->
<!DOCTYPE svg PUBLIC "-//W3C//DTD SVG 1.1//EN" "http://www.w3.org/Graphics/SVG/1.1/DTD/svg11.dtd">
<svg version="1.1" id="图层_1" xmlns="http://www.w3.org/2000/svg" xmlns:xlink="http://www.w3.org/1999/xlink" x="0px" y="0px"
	 width="960px" height="960px" viewBox="0 0 960 960" enable-background="new 0 0 960 960" xml:space="preserve">
<path id="bezier55" fill="#F3D7A3" d="M373.438,607.609c32.785,12.266,39.191,75.82,14.352,141.984s-71.566,109.898-104.328,97.68
	c-32.805-12.262-39.189-75.836-14.348-141.984C293.95,639.121,340.681,595.398,373.438,607.609z"/>
<path id="bezier2" fill="#040000" d="M307.366,830.113v50.543H643.22v-50.543H307.366z"/>
<path id="bezier5" fill="#F3D7A3" d="M576.001,593.859c-32.813,12.238-39.195,75.813-14.352,141.961
	c24.84,66.191,71.563,109.891,104.328,97.68c32.781-12.266,39.188-75.82,14.352-141.961
	C655.489,625.344,608.759,581.617,576.001,593.859z"/>
<path id="bezier7" fill="#4BA994" d="M674.907,637.398l-57.938-82.133l-46.758,21.43l-4.148-13.535H379.606l-3.238,11.691
	l-42.742-19.586l-57.938,82.133l74.063,33.93L304.2,836.43h345.723l-50.449-164.473L674.907,637.398z"/>
<path id="bezier8" fill="#FFFFFF" d="M475.298,650.043c29.758,0,53.852-24.047,53.852-53.715c0-29.664-24.094-53.688-53.852-53.688
	c-29.762,0-53.855,24.023-53.855,53.688C421.442,625.996,445.536,650.043,475.298,650.043z"/>
<path id="bezier9" fill="#F3D7A3" d="M473.712,637.398c23.641,0,42.77-19.086,42.77-42.656c0-23.563-19.129-42.645-42.77-42.645
	s-42.766,19.082-42.766,42.645C430.946,618.313,450.071,637.398,473.712,637.398z"/>
<path id="bezier10" fill="#F3D7A3" d="M191.712,400.465c23.639,0,42.793-19.078,42.793-42.645c0-23.57-19.154-42.646-42.793-42.646
	c-23.637,0-42.77,19.076-42.77,42.646C148.942,381.387,168.075,400.465,191.712,400.465z"/>
<path id="bezier11" fill="#E4CCA2" d="M749.376,400.465c23.641,0,42.766-19.078,42.766-42.645c0-23.57-19.125-42.646-42.766-42.646
	s-42.793,19.076-42.793,42.646C706.583,381.387,725.735,400.465,749.376,400.465z"/>
<path id="bezier12" fill="#F3D7A3" d="M479.759,596.863c156.625,0,283.586-99,283.586-221.137S636.384,154.59,479.759,154.59
	c-156.621,0-283.582,99-283.582,221.137S323.138,596.863,479.759,596.863z"/>
<path id="bezier19" fill="#211D1A" d="M473.438,845.93v41.063h3.172V845.93H473.438z"/>
<path id="bezier31" fill="#211D1A" d="M274.106,896.453c7.891,0,14.252-4.969,14.252-11.063c0-6.102-6.361-11.047-14.252-11.047
	c-7.898,0-14.26,4.945-14.26,11.047C259.847,891.484,266.208,896.453,274.106,896.453z"/>
<path id="bezier32" fill="#211D1A" d="M296.28,896.453c7.896,0,14.256-4.969,14.256-11.063c0-6.102-6.359-11.047-14.256-11.047
	c-7.898,0-14.256,4.945-14.256,11.047C282.024,891.484,288.382,896.453,296.28,896.453z"/>
<path id="bezier33" fill="#211D1A" d="M318.454,896.453c7.896,0,14.258-4.969,14.258-11.063c0-6.102-6.361-11.047-14.258-11.047
	c-7.895,0-14.254,4.945-14.254,11.047C304.2,891.484,310.56,896.453,318.454,896.453z"/>
<path id="bezier34" fill="#211D1A" d="M343.798,896.453c7.898,0,14.258-4.969,14.258-11.063c0-6.102-6.359-11.047-14.258-11.047
	c-7.895,0-14.254,4.945-14.254,11.047C329.544,891.484,335.903,896.453,343.798,896.453z"/>
<path id="bezier35" fill="#211D1A" d="M365.974,896.453c7.898,0,14.258-4.969,14.258-11.063c0-6.102-6.359-11.047-14.258-11.047
	c-7.867,0-14.254,4.945-14.254,11.047C351.72,891.484,358.106,896.453,365.974,896.453z"/>
<path id="bezier36" fill="#211D1A" d="M388.153,896.453c7.895,0,14.277-4.969,14.277-11.063c0-6.102-6.383-11.047-14.277-11.047
	c-7.871,0-14.258,4.945-14.258,11.047C373.896,891.484,380.282,896.453,388.153,896.453z"/>
<path id="bezier37" fill="#211D1A" d="M413.521,896.453c7.871,0,14.254-4.969,14.254-11.063c0-6.102-6.383-11.047-14.254-11.047
	c-7.895,0-14.258,4.945-14.258,11.047C399.263,891.484,405.626,896.453,413.521,896.453z"/>
<path id="bezier38" fill="#211D1A" d="M435.696,896.453c7.895,0,14.258-4.969,14.258-11.063c0-6.102-6.363-11.047-14.258-11.047
	c-7.898,0-14.254,4.945-14.254,11.047C421.442,891.484,427.798,896.453,435.696,896.453z"/>
<path id="bezier39" fill="#211D1A" d="M457.876,896.453c7.891,0,14.25-4.969,14.25-11.063c0-6.102-6.359-11.047-14.25-11.047
	c-7.898,0-14.262,4.945-14.262,11.047C443.614,891.484,449.978,896.453,457.876,896.453z"/>
<path id="bezier40" fill="#211D1A" d="M489.552,896.453c7.898,0,14.254-4.969,14.254-11.063c0-6.102-6.355-11.047-14.254-11.047
	s-14.254,4.945-14.254,11.047C475.298,891.484,481.653,896.453,489.552,896.453z"/>
<path id="bezier41" fill="#211D1A" d="M511.728,896.453c7.895,0,14.258-4.969,14.258-11.063c0-6.102-6.363-11.047-14.258-11.047
	c-7.875,0-14.254,4.945-14.254,11.047C497.474,891.484,503.853,896.453,511.728,896.453z"/>
<path id="bezier42" fill="#211D1A" d="M533.907,896.453c7.891,0,14.25-4.969,14.25-11.063c0-6.102-6.359-11.047-14.25-11.047
	c-7.875,0-14.258,4.945-14.258,11.047C519.649,891.484,526.032,896.453,533.907,896.453z"/>
<path id="bezier43" fill="#211D1A" d="M559.274,896.453c7.867,0,14.254-4.969,14.254-11.063c0-6.102-6.387-11.047-14.254-11.047
	c-7.898,0-14.281,4.945-14.281,11.047C544.993,891.484,551.376,896.453,559.274,896.453z"/>
<path id="bezier44" fill="#211D1A" d="M581.45,896.453c7.871,0,14.254-4.969,14.254-11.063c0-6.102-6.383-11.047-14.254-11.047
	c-7.898,0-14.262,4.945-14.262,11.047C567.188,891.484,573.552,896.453,581.45,896.453z"/>
<path id="bezier45" fill="#211D1A" d="M603.622,896.453c7.898,0,14.262-4.969,14.262-11.063c0-6.102-6.363-11.047-14.262-11.047
	c-7.895,0-14.254,4.945-14.254,11.047C589.368,891.484,595.728,896.453,603.622,896.453z"/>
<path id="bezier46" fill="#211D1A" d="M628.97,896.453c7.898,0,14.25-4.969,14.25-11.063c0-6.102-6.352-11.047-14.25-11.047
	s-14.258,4.945-14.258,11.047C614.712,891.484,621.071,896.453,628.97,896.453z"/>
<path id="bezier47" fill="#211D1A" d="M651.142,896.453c7.898,0,14.258-4.969,14.258-11.063c0-6.102-6.359-11.047-14.258-11.047
	c-7.891,0-14.25,4.945-14.25,11.047C636.892,891.484,643.251,896.453,651.142,896.453z"/>
<path id="bezier48" fill="#211D1A" d="M673.321,896.453c7.891,0,14.254-4.969,14.254-11.063c0-6.102-6.363-11.047-14.254-11.047
	c-7.871,0-14.258,4.945-14.258,11.047C659.063,891.484,665.45,896.453,673.321,896.453z"/>
<path id="bezier50" fill="#FFFFFF" d="M367.56,842.742c-59.496,0-107.713,19.773-107.713,44.23h215.451
	C475.298,862.516,427.079,842.742,367.56,842.742L367.56,842.742z"/>
<path id="bezier51" fill="#FFFFFF" d="M583.032,842.742c-59.52,0-107.734,19.773-107.734,44.23h215.445
	C690.743,862.516,642.528,842.742,583.032,842.742L583.032,842.742z"/>
<polyline fill="#1A1A1A" points="262.894,115.926 245.72,131.6 234.845,147.127 209.843,159.725 196.247,170.33 186.044,180.924 
	180.442,188.928 174.646,198.725 169.646,209.504 179.337,200.965 169.446,214.73 166.718,220.777 161.044,234.324 159.243,239.928 
	157.786,242.121 157.786,286.324 162.442,281.34 162.442,292.129 162.845,338.527 167.169,335.074 167.444,341.93 169.247,375.922 
	187.845,339.324 199.247,359.121 272.044,231.324 323.946,270.127 410.345,316.777 503.845,345.023 590.04,358.73 558.446,308.33 
	695.243,370.73 676.442,320.723 773.243,385.926 773.243,349.523 801.642,379.926 801.642,287.121 755.618,179.301 712.243,139.129 
	672.243,108.725 617.243,83.527 589.442,72.426 558.845,65.928 432.446,65.928 374.642,76.777 321.544,92.328 "/>
<radialGradient id="SVGID_1_" cx="438.3701" cy="406.75" r="19.2021" gradientUnits="userSpaceOnUse">
	<stop  offset="0" style="stop-color:#777777"/>
	<stop  offset="1" style="stop-color:#000000"/>
</radialGradient>
<path fill="url(#SVGID_1_)" d="M457.571,406.746c0,10.609-8.602,19.207-19.203,19.207s-19.199-8.598-19.199-19.207
	c0-10.602,8.598-19.199,19.199-19.199S457.571,396.145,457.571,406.746z"/>
<radialGradient id="SVGID_2_" cx="505.167" cy="406.75" r="19.2021" gradientUnits="userSpaceOnUse">
	<stop  offset="0" style="stop-color:#777777"/>
	<stop  offset="1" style="stop-color:#000000"/>
</radialGradient>
<path fill="url(#SVGID_2_)" d="M524.368,406.746c0,10.605-8.602,19.207-19.203,19.207s-19.199-8.602-19.199-19.207
	c0-10.602,8.598-19.199,19.199-19.199S524.368,396.145,524.368,406.746z"/>
</svg>
